<svg xmlns="http://www.w3.org/2000/svg" xmlns:xlink="http://www.w3.org/1999/xlink" width="72.906" height="190.947" viewBox="0 0 72.906 190.947">
  <defs>
    <clipPath id="clip-path">
      <path id="Path_5" data-name="Path 5" d="M34.352,130.066a2.157,2.157,0,1,0,2.157-2.157,2.158,2.158,0,0,0-2.157,2.157m5.214-64.722c-2.26,32.726,4.858,53.809,2.854,64.794-.844,4.624-3.778,6.025-5.91,6.111-2.132-.086-5.066-1.487-5.91-6.111-1.227-6.723,1.723-17.441,2.865-34.415L4.689,103.407a6.225,6.225,0,0,0-4.671,6.068c0,2.164-.011,4.262-.017,6.733v.2c.052,20.646,11.135,37.06,36.446,37.06S72.894,137,72.894,116.307V93.284a12.774,12.774,0,0,0-5.231-10.5L52.067,71.02,40.293,62.138a10.762,10.762,0,0,0-.727,3.206M36.446,0C10.951,0,.052,16.414,0,37.061V57.85a12.774,12.774,0,0,0,5.231,10.5L22.759,81.572l11.027,8.319a210.668,210.668,0,0,0-.345-24.653c-.714-9.718-14.088-12.828-14.088-27.219,0-10.547,7.463-17.408,17.156-17.408s17.155,6.861,17.155,17.408c0,10.976-7.748,15.392-11.767,21.178l26.285-6.8A6.229,6.229,0,0,0,72.9,46.287c0-1.433-.007-3.915-.007-9.127C72.894,15.091,61.943,0,36.446,0Z" fill="none"/>
    </clipPath>
    <clipPath id="clip-path-2">
      <rect id="Rectangle_5" data-name="Rectangle 5" width="72.906" height="190.947" fill="none"/>
    </clipPath>
  </defs>
  <g id="Group_45" data-name="Group 45" transform="translate(-893 -271)">
    <g id="Group_9" data-name="Group 9" transform="translate(893 271)">
      <g id="Group_8" data-name="Group 8" clip-path="url(#clip-path)">
        <rect id="Rectangle_4" data-name="Rectangle 4" width="72.906" height="153.466" transform="translate(0 0.001)" fill="#f2682e"/>
      </g>
    </g>
    <g id="Group_11" data-name="Group 11" transform="translate(893 271)">
      <g id="Group_10" data-name="Group 10" clip-path="url(#clip-path-2)">
        <path id="Path_6" data-name="Path 6" d="M28.992,305.458,33.049,317a.354.354,0,0,0,.339.24h4.3a.355.355,0,0,0,.339-.24l4.056-11.564a.359.359,0,0,1,.7.119v11.327a.36.36,0,0,0,.359.359h5.593a.36.36,0,0,0,.359-.359v-20.8a.36.36,0,0,0-.359-.359H40.9a.353.353,0,0,0-.339.241l-4.69,13.464a.359.359,0,0,1-.678,0l-4.8-13.469a.354.354,0,0,0-.339-.238H22.341a.36.36,0,0,0-.359.359v20.8a.36.36,0,0,0,.359.359h5.593a.36.36,0,0,0,.359-.359v-11.3a.359.359,0,0,1,.7-.119m30.229-9.741H53.032a.36.36,0,0,0-.359.359v20.8a.36.36,0,0,0,.359.359h5.353a.36.36,0,0,0,.359-.359V305.036a.359.359,0,0,1,.675-.172l6.617,12.185a.351.351,0,0,0,.316.188h6.19a.36.36,0,0,0,.359-.359v-20.8a.36.36,0,0,0-.359-.359H67.189a.36.36,0,0,0-.359.359v11.9a.36.36,0,0,1-.676.171L59.537,295.9a.35.35,0,0,0-.316-.188M19.214,310.294c0-5.079-4.3-6.192-8.6-6.642-2.374-.271-4.178-.511-4.178-2.044,0-1.142,1.262-1.984,3.1-1.984,1.994,0,3.516,1.05,3.682,2.536a.358.358,0,0,0,.357.32h4.756a.348.348,0,0,0,.262-.113.345.345,0,0,0,.1-.268c-.248-4.16-4.085-7.134-9.365-7.134-5.381,0-9.2,2.945-9.2,7.364,0,5.079,4.148,6.191,8.6,6.7,2.284.3,4.178.541,4.178,2.1,0,1.292-1.262,2.194-3.156,2.194-2.208,0-3.857-1.2-4.066-2.871a.358.358,0,0,0-.357-.315H.376a.347.347,0,0,0-.261.112.349.349,0,0,0-.1.265c.215,4.343,4.143,7.467,9.519,7.467,5.681,0,9.678-3.126,9.678-7.694" transform="translate(-0.007 -134.879)" fill="#112b38" fill-rule="evenodd"/>
        <path id="Path_7" data-name="Path 7" d="M8.507,342.534a1.75,1.75,0,1,1-1.667,1.748,1.638,1.638,0,0,1,1.667-1.748m0,4.559a2.812,2.812,0,1,0,0-5.622,2.812,2.812,0,1,0,0,5.622m5.405-3.064,1.066,2.768a.172.172,0,0,0,.163.111h.69a.172.172,0,0,0,.163-.111l1.073-2.773a.174.174,0,0,1,.337.062v2.647a.175.175,0,0,0,.174.174h.861a.174.174,0,0,0,.174-.174v-4.9a.174.174,0,0,0-.174-.174H17.081a.171.171,0,0,0-.162.112l-1.271,3.322a.174.174,0,0,1-.326,0l-1.284-3.324a.171.171,0,0,0-.162-.111H12.54a.174.174,0,0,0-.174.174v4.9a.174.174,0,0,0,.174.174H13.4a.174.174,0,0,0,.174-.174v-2.643a.174.174,0,0,1,.337-.062m7.267.63h1.85a.174.174,0,0,0,.174-.174v-.537a.175.175,0,0,0-.174-.174h-1.85A.174.174,0,0,1,21,343.6v-.773a.175.175,0,0,1,.174-.174h2.145a.174.174,0,0,0,.174-.174v-.647a.174.174,0,0,0-.174-.174h-3.34a.174.174,0,0,0-.174.174v4.9a.174.174,0,0,0,.174.174H23.4a.174.174,0,0,0,.174-.174v-.647a.175.175,0,0,0-.174-.174H21.179a.174.174,0,0,1-.174-.174v-.905a.175.175,0,0,1,.174-.175m4.884-.63,1.066,2.768a.172.172,0,0,0,.163.111h.69a.171.171,0,0,0,.162-.111l1.074-2.773a.174.174,0,0,1,.337.062v2.647a.175.175,0,0,0,.174.174h.861a.174.174,0,0,0,.174-.174v-4.9a.174.174,0,0,0-.174-.174H29.232a.172.172,0,0,0-.163.112L27.8,345.09a.174.174,0,0,1-.326,0l-1.284-3.324a.171.171,0,0,0-.163-.111H24.69a.174.174,0,0,0-.174.174v4.9a.174.174,0,0,0,.174.174h.861a.175.175,0,0,0,.174-.174v-2.643a.174.174,0,0,1,.337-.062m7.152,2.009H35.1a.172.172,0,0,1,.166.12l.209.631a.171.171,0,0,0,.165.119h.93a.174.174,0,0,0,.166-.23l-1.639-4.9a.172.172,0,0,0-.166-.119H33.384a.172.172,0,0,0-.166.119l-1.646,4.9a.174.174,0,0,0,.165.23h.938a.172.172,0,0,0,.166-.119l.208-.631a.172.172,0,0,1,.166-.12m1.109-2.834.583,1.718a.171.171,0,0,1-.024.158.169.169,0,0,1-.142.073H33.575a.174.174,0,0,1-.165-.231l.583-1.718a.174.174,0,0,1,.33,0m6.984,1.078a1.625,1.625,0,0,1-1.793,1.66h-.586a.174.174,0,0,1-.174-.174V342.8a.174.174,0,0,1,.174-.174h.586a1.625,1.625,0,0,1,1.793,1.66m-3.589,2.626h1.8c1.815,0,3.025-1.047,3.025-2.626s-1.21-2.626-3.025-2.626h-1.8a.175.175,0,0,0-.174.174v4.9a.175.175,0,0,0,.174.174m7.142-2.25h1.85a.174.174,0,0,0,.174-.174v-.537a.175.175,0,0,0-.174-.174H44.86a.175.175,0,0,1-.175-.174v-.773a.175.175,0,0,1,.175-.174H47a.174.174,0,0,0,.174-.174v-.647a.174.174,0,0,0-.174-.174h-3.34a.174.174,0,0,0-.174.174v4.9a.174.174,0,0,0,.174.174h3.414a.174.174,0,0,0,.174-.174v-.647a.175.175,0,0,0-.174-.174H44.86a.175.175,0,0,1-.175-.174v-.905a.175.175,0,0,1,.175-.175m8.737.195v-.6a.175.175,0,0,0-.174-.174H51.868a.174.174,0,0,1-.174-.174v-1.016a.175.175,0,0,1,.174-.175h1.99a.175.175,0,0,0,.174-.174v-.714a.175.175,0,0,0-.174-.174h-3.23a.175.175,0,0,0-.174.174v4.9a.175.175,0,0,0,.174.174h.891a.174.174,0,0,0,.174-.174V345.2a.175.175,0,0,1,.174-.174h1.555a.174.174,0,0,0,.174-.174m3.932-2.319a1.75,1.75,0,1,1-1.667,1.748,1.638,1.638,0,0,1,1.667-1.748m0,4.559a2.812,2.812,0,1,0-2.907-2.811,2.726,2.726,0,0,0,2.907,2.811m6.522-4.559a1.75,1.75,0,1,1-1.668,1.748,1.637,1.637,0,0,1,1.668-1.748m0,4.559a2.812,2.812,0,1,0-2.907-2.811,2.725,2.725,0,0,0,2.907,2.811m7.62-2.811a1.625,1.625,0,0,1-1.793,1.66h-.586a.174.174,0,0,1-.174-.174V342.8a.174.174,0,0,1,.174-.174h.586a1.625,1.625,0,0,1,1.793,1.66m-3.588,2.626h1.8c1.815,0,3.025-1.047,3.025-2.626s-1.21-2.626-3.025-2.626h-1.8a.174.174,0,0,0-.174.174v4.9a.174.174,0,0,0,.174.174m-66.836-.174v-1.872a.174.174,0,0,1,.174-.174h1.82a.175.175,0,0,1,.175.174v1.872a.174.174,0,0,0,.174.174h.891a.174.174,0,0,0,.174-.174v-4.9a.174.174,0,0,0-.174-.174H3.591a.174.174,0,0,0-.174.174v1.68a.175.175,0,0,1-.175.174H1.422a.174.174,0,0,1-.174-.174v-1.68a.175.175,0,0,0-.174-.174H.183a.175.175,0,0,0-.175.174v4.9a.175.175,0,0,0,.175.174h.891a.175.175,0,0,0,.174-.174" transform="translate(-0.004 -156.145)" fill="#112b38" fill-rule="evenodd"/>
      </g>
    </g>
  </g>
</svg>
